<svg xmlns="http://www.w3.org/2000/svg" enable-background="new 0 0 50 50" viewBox="0 0 50 50">
	<path d="M23.9579,32.918c4.5349-3.1146,4.13-10.06,4.13-10.06c0.43-6.02-3.8-8.3-3.8-8.3c-0.39,2.29-4.5,4.52-7.71,5.16
		c-7.2992,1.4461-7.0634,8.4829-2.08,13.19v0.0099C17.6881,34.993,20.76,35.1143,23.9579,32.918z" fill="#3e3e3e"/>
	<path d="M12.8479 33.378c-5.195-5.5186-4.843-13.4915 3.44-15.13 3.2599-.65 6.31-2.71 6.52-3.94l.35-2.06 1.84.99c.21.11 5.03 2.79 4.59 9.63.3741 6.8096-3.0791 9.5306-3.63 10.79 1.98.49 5.25.71 8.86-1.5 0 0-4.41-2.61-3.22-7.35 0 0 3.84-15.61-6.7401-15.99 0 0-6.73-7.35-14.42.86 0 0-5.07 4.45-1.8 15.17 0 0 1 3.99-3.98 7.4C4.6579 32.248 5.8079 35.098 12.8479 33.378zM24.0679 35.228h-1.18c-2.3632 1.0526-4.8036 1.0542-7.25 0-.406.0771-5.9166-.6621-10.6 4.04-2.5 2.49-4.04 5.93-4.04 9.73h36.84C37.8379 41.398 31.6679 35.228 24.0679 35.228zM38.6979 2.628c-.41 0-.75.33-.75.75v34.81c0 .41.34.75.75.75h4.14c-.1062-.4247-.1091-1.0453 0-1.5h-3.39v-10.1h3.39c-.1087-.453-.1066-1.0736 0-1.5h-3.39v-10.11h3.15c-.1077-.4308-.1075-1.07 0-1.5h-3.15v-10.1h3.39c-.1077-.4307-.1075-1.07 0-1.5H38.6979z" fill="#3e3e3e"/><circle cx="46.63" cy="3.374" r="2.372" fill="#3e3e3e"/><ellipse cx="46.29" cy="14.979" rx="2.27" ry="2.372" fill="#3e3e3e"/><circle cx="46.63" cy="26.584" r="2.372" fill="#3e3e3e"/><circle cx="46.63" cy="38.189" r="2.372" fill="#3e3e3e"/></svg>